<?xml version="1.0" encoding="utf-8"?>
<!-- Generator: Adobe Illustrator 22.1.0, SVG Export Plug-In . SVG Version: 6.00 Build 0)  -->
<svg version="1.1" id="Layer_1" xmlns="http://www.w3.org/2000/svg" xmlns:xlink="http://www.w3.org/1999/xlink" x="0px" y="0px"
	 viewBox="0 0 32 32" style="enable-background:new 0 0 32 32;" xml:space="preserve">
<style type="text/css">
	.st0{fill:#A9A9A9;}
</style>
<path class="st0" d="M4,11.2h24c1.1,0,2-0.9,2-2s-0.9-2-2-2H4c-1.1,0-2,0.9-2,2S2.9,11.2,4,11.2z M28,15.2H4c-1.1,0-2,0.9-2,2
	s0.9,2,2,2h24c1.1,0,2-0.9,2-2S29.1,15.2,28,15.2z M28,23.2H4c-1.1,0-2,0.9-2,2s0.9,2,2,2h24c1.1,0,2-0.9,2-2S29.1,23.2,28,23.2z"/>
</svg>
